<?xml version="1.0" standalone="no"?><!DOCTYPE svg PUBLIC "-//W3C//DTD SVG 1.1//EN" "http://www.w3.org/Graphics/SVG/1.1/DTD/svg11.dtd"><svg t="1720532804050" class="icon" viewBox="0 0 1024 1024" version="1.1" xmlns="http://www.w3.org/2000/svg" p-id="3383" xmlns:xlink="http://www.w3.org/1999/xlink" width="200" height="200"><path d="M208.979592 1024h606.040816c115.461224 0 208.979592-93.518367 208.979592-208.979592V208.979592C1024 93.518367 930.481633 0 815.020408 0H208.979592C93.518367 0 0 93.518367 0 208.979592v606.040816c0 115.461224 93.518367 208.979592 208.979592 208.979592z" fill="#FFFFFF" p-id="3384"></path><path d="M365.714286 846.367347h480.653061c23.092245 0 41.795918-18.703673 41.795918-41.795918V219.428571c0-23.092245-18.703673-41.795918-41.795918-41.795918H365.714286c-23.092245 0-41.795918 18.703673-41.795919 41.795918v585.142858c0 23.092245 18.703673 41.795918 41.795919 41.795918z" fill="#CA64EA" p-id="3385"></path><path d="M720.979592 344.816327h167.183673V219.428571c0-23.092245-18.703673-41.795918-41.795918-41.795918H720.979592v167.183674z" fill="#CA64EA" p-id="3386"></path><path d="M720.979592 512h167.183673V344.816327H720.979592v167.183673z" fill="#AE4BD5" p-id="3387"></path><path d="M720.979592 679.183673h167.183673V512H720.979592v167.183673z" fill="#9332BF" p-id="3388"></path><path d="M720.979592 846.367347h125.387755c23.092245 0 41.795918-18.703673 41.795918-41.795918V679.183673H720.979592v167.183674z" fill="#7719AA" p-id="3389"></path><path d="M177.632653 700.081633h292.571429c23.092245 0 41.795918-18.703673 41.795918-41.795919V365.714286c0-23.092245-18.703673-41.795918-41.795918-41.795919H177.632653c-23.092245 0-41.795918 18.703673-41.795918 41.795919v292.571428c0 23.092245 18.703673 41.795918 41.795918 41.795919z" fill="#6D10A3" p-id="3390"></path><path d="M407.510204 407.510204h-42.213877v137.822041L282.644898 407.510204H240.326531v208.979592h42.318367V478.981224L365.191837 616.489796H407.510204V407.510204z" fill="#FFFFFF" p-id="3391"></path></svg>