<?xml version="1.0" standalone="no"?><!DOCTYPE svg PUBLIC "-//W3C//DTD SVG 1.1//EN" "http://www.w3.org/Graphics/SVG/1.1/DTD/svg11.dtd"><svg t="1718855037108" class="icon" viewBox="0 0 1024 1024" version="1.1" xmlns="http://www.w3.org/2000/svg" p-id="2619" xmlns:xlink="http://www.w3.org/1999/xlink" width="200" height="200"><path d="M999.141744 512.294786a94.940597 94.940597 0 0 0-22.41329-48.028478 139.437399 139.437399 0 0 0-51.230378-32.018986A337.740986 337.740986 0 0 0 864.662004 416.237829a159.150025 159.150025 0 0 0-51.230378-6.403797 236.430766 236.430766 0 0 0-80.047464 3.201898L586.096827 144.07645c-6.403797-6.403797-6.403797-12.807594-19.211391-19.211391a34.595207 34.595207 0 0 0-22.41329-9.605696L496.443667 118.461261c-9.605696-3.201899-12.807594 0-19.211391 6.403798s-6.403797 12.807594-3.201899 22.41329l60.836073 284.968973c-9.605696 3.201899-48.028479 3.201899-112.06645 9.605696L333.14684 320.180872a54.730462 54.730462 0 0 0-41.624682-22.41329l-73.643667 3.201898a16.633472 16.633472 0 0 0-12.807594 6.403797q-4.802848 4.802848 0 19.211392l80.047464 163.296827a44.738304 44.738304 0 0 1 0 44.82658l-80.047464 163.296828q-4.802848 14.408544 0 19.211391a16.633472 16.633472 0 0 0 12.807594 6.403797l70.441769 0a43.440229 43.440229 0 0 0 41.624681-22.41329l89.653161-121.672146c6.403797 0 41.624681 3.201899 108.864551 12.807595l-60.836073 284.968973a62.518912 62.518912 0 0 0 3.201899 22.41329c6.403797 6.403797 9.605696 9.605696 16.009493 9.605696l51.230377 0a34.595207 34.595207 0 0 0 22.41329-9.605696l19.211391-19.211391 153.691132-268.959481a542.142508 542.142508 0 0 0 83.249363 6.403797 219.43504 219.43504 0 0 0 70.441769-12.807594 222.936824 222.936824 0 0 0 73.643667-35.220884A71.062056 71.062056 0 0 0 999.141744 512.294786z" fill="#14B8CC" p-id="2620"></path></svg>